PathFileType	4	(X/Y/Z)	C:/Users/opensim2020/Desktop/walking_exp_matlab/subject02_walking10_straight_02.trc	
DataRate	CameraRate	NumFrames	NumMarkers	Units	OrigDataRate	OrigDataStartFrame	OrigNumFrames	
100.00	100.00	8	43	mm	100.00	1470	280	
Frame#	Time	LFHD			RFHD			LBHD			RBHD			C7			T10			CLAV			STRN			RBAK			LSHO			LUPA			LELB			LFRM			LWRA			LWRB			LFIN			RSHO			RUPA			RELB			RFRM			RWRA			RWRB			RFIN			LASI			RASI			LPSI			RPSI			LTHI			LKNE			LTIB			LANK			LHEE			LTOE			RTHI			RKNE			RTIB			RANK			RHEE			RTOE			*39			*40			*41			*42			
		X1	Y1	Z1	X2	Y2	Z2	X3	Y3	Z3	X4	Y4	Z4	X5	Y5	Z5	X6	Y6	Z6	X7	Y7	Z7	X8	Y8	Z8	X9	Y9	Z9	X10	Y10	Z10	X11	Y11	Z11	X12	Y12	Z12	X13	Y13	Z13	X14	Y14	Z14	X15	Y15	Z15	X16	Y16	Z16	X17	Y17	Z17	X18	Y18	Z18	X19	Y19	Z19	X20	Y20	Z20	X21	Y21	Z21	X22	Y22	Z22	X23	Y23	Z23	X24	Y24	Z24	X25	Y25	Z25	X26	Y26	Z26	X27	Y27	Z27	X28	Y28	Z28	X29	Y29	Z29	X30	Y30	Z30	X31	Y31	Z31	X32	Y32	Z32	X33	Y33	Z33	X34	Y34	Z34	X35	Y35	Z35	X36	Y36	Z36	X37	Y37	Z37	X38	Y38	Z38	X39	Y39	Z39	X40	Y40	Z40	X41	Y41	Z41	X42	Y42	Z42	X43	Y43	Z43	

71	0.700	-934.35608	569.58691	1763.30017	-1077.24524	570.60822	1743.45984	-921.64557	686.46954	1668.46960	-1063.18396	698.70264	1644.90588	-989.51288	726.54620	1534.87476	-991.33997	780.01312	1260.60950	-986.29480	586.67725	1467.85315	-999.88477	535.08429	1295.02844	-1050.62415	787.21490	1362.70239	-813.09869	640.90033	1510.00830	-724.82343	625.80304	1310.19080	-709.34045	606.37695	1171.19141	-697.16498	572.33752	1044.29260	-736.94879	502.26917	928.52576	-695.19238	539.84436	925.40173	-692.93848	509.02536	866.77673	-1179.53882	656.20612	1502.68701	-1262.69873	697.91028	1314.36914	-1282.40430	691.54321	1167.89514	-1304.43884	660.62292	1051.40552	-1288.63953	606.69171	926.42053	-1317.62134	654.98749	921.55072	-1322.88293	615.76416	860.16406	-870.21088	543.43134	999.48431	-1124.77881	555.54584	987.61304	-941.72241	756.16913	1041.79431	-1056.80457	766.10657	1041.61511	-830.60352	603.10663	682.90070	-871.03467	635.17590	481.70084	-882.49463	690.90918	293.57336	-933.24072	684.51324	72.51799	-985.68805	719.50409	45.48246	-925.73096	528.81995	37.92331	-1219.05005	602.73407	688.48315	-1211.99963	569.33081	488.38583	-1200.47046	678.38074	338.67380	-1159.19189	760.26227	165.95953	-1092.46545	790.81305	118.54179	-1222.90479	659.48267	61.41736	-1022.23193	682.96399	1810.51697	-3357.13501	2845.72192	1034.30640						 
72	0.710	-934.17310	561.70929	1763.40381	-1077.09058	562.98090	1742.97437	-921.24860	678.80249	1669.20471	-1062.65796	691.48029	1645.09155	-988.63861	719.47375	1535.09180	-991.23590	773.69098	1261.03186	-985.47491	579.75116	1467.76245	-998.62329	528.69452	1294.91528	-1049.70862	780.50140	1363.01184	-812.28424	633.76874	1510.33411	-723.56000	617.30444	1311.05847	-707.68073	596.72296	1172.03406	-695.85992	560.26202	1045.36560	-736.19928	489.10550	930.95026	-694.03625	527.20203	927.11438	-692.46167	494.84305	868.90039	-1178.69263	649.44330	1502.54175	-1261.18958	692.33160	1314.36169	-1281.55078	686.54919	1167.95288	-1303.63989	655.90002	1051.32019	-1287.95593	602.20593	926.29510	-1317.23865	650.72443	921.71973	-1322.10779	611.59875	860.18060	-868.53369	539.02917	998.76715	-1123.34985	548.79138	987.86163	-942.34851	750.89551	1041.90735	-1057.53552	759.88220	1042.38818	-830.53296	600.04266	682.60138	-871.07220	633.60156	481.58591	-882.75177	690.27502	293.80243	-933.44043	684.53400	72.56218	-985.93683	719.60223	45.57264	-925.48132	528.82526	37.82375	-1218.55823	593.51428	689.20435	-1210.62915	557.39844	488.95605	-1200.29053	661.56042	335.45889	-1159.89880	737.67609	159.83557	-1093.58130	767.34320	111.20805	-1222.20142	632.05811	59.47447	-1022.19098	674.78601	1810.72754	-3360.36841	2845.18359	1034.17932						 
73	0.720	-934.46460	553.60950	1763.11633	-1077.31787	555.26978	1742.34729	-920.55676	671.35010	1669.74695	-1062.13391	684.23761	1645.23083	-987.83618	712.41028	1535.26782	-991.17084	767.32178	1261.40918	-984.69641	572.88763	1467.56030	-997.44574	522.32690	1294.59021	-1048.98975	773.95227	1363.38794	-811.58990	626.59631	1510.49072	-722.39081	608.92365	1311.69434	-706.08569	587.15997	1172.68469	-694.69720	548.80255	1046.44543	-735.57617	475.83551	933.22809	-693.51819	513.83307	928.60052	-692.17822	480.68002	871.07953	-1177.78345	642.68121	1502.14575	-1260.23779	686.76367	1314.39185	-1280.81433	681.48462	1167.95007	-1302.85938	651.11481	1051.19116	-1287.29980	597.60577	926.06671	-1316.12854	646.32922	921.43719	-1321.40259	607.23505	859.96088	-867.04858	534.40411	997.91071	-1122.27808	542.18237	987.98889	-942.94598	745.57324	1042.04724	-1058.16528	753.75500	1042.94568	-830.47516	597.05060	682.21240	-871.07324	631.92371	481.44217	-883.00208	689.45764	293.97211	-933.64679	684.52039	72.59308	-986.07245	719.26526	45.52689	-925.24847	528.77008	37.71854	-1218.07886	584.33514	689.91156	-1209.26013	545.58875	489.47791	-1200.20679	644.53595	332.16437	-1160.63293	714.87170	153.92560	-1094.97156	743.62457	104.29857	-1221.40125	604.63684	57.70118	-1022.58600	666.48053	1810.79211	-3360.19189	2845.08301	1034.09900						 
74	0.730	-934.74316	545.44702	1762.88538	-1077.44006	547.51965	1741.60583	-920.35236	663.57910	1670.08704	-1061.66650	677.02203	1645.22375	-987.13263	705.34216	1535.37683	-991.24475	761.07184	1261.69958	-983.93445	565.99725	1467.25134	-996.33142	515.92328	1294.13049	-1048.33398	767.48114	1363.58887	-810.93188	619.61157	1510.53198	-721.26782	600.76556	1312.12256	-704.56207	577.69733	1173.30530	-693.45422	537.05676	1047.42725	-735.06317	463.02487	935.55469	-692.92389	500.87369	930.26434	-691.97699	466.39688	873.21259	-1176.97009	635.88519	1501.73328	-1259.73083	681.16077	1314.40784	-1279.93628	676.33350	1167.82410	-1302.29919	646.28186	1051.06995	-1287.02283	592.68726	925.88007	-1315.32019	641.73596	921.18823	-1320.74207	602.71173	859.65082	-865.62415	529.68347	996.89026	-1121.26294	535.62665	987.63922	-943.54187	740.23108	1042.18787	-1058.73584	747.62469	1043.27246	-830.54791	594.16266	681.94116	-871.23309	630.09167	481.30185	-883.16443	688.42126	294.13922	-933.82452	684.44037	72.65623	-986.52185	719.63336	45.82708	-924.98358	528.85986	37.48559	-1217.68359	575.20374	690.54126	-1207.76208	534.08093	489.83902	-1200.00635	627.70251	329.04266	-1161.30432	692.00903	148.13960	-1095.88660	719.69708	97.49221	-1220.62000	577.16888	56.27591	-1022.68591	658.24683	1810.86560	-3360.28174	2845.17627	1034.05786						 
75	0.740	-935.00946	537.26953	1762.56262	-1077.79187	539.77496	1740.82837	-920.20398	655.90112	1670.62781	-1061.41394	669.75311	1645.24402	-986.56573	698.31226	1535.43225	-991.36511	754.79523	1261.92505	-983.43756	559.10114	1466.77100	-995.36145	509.52805	1293.62036	-1047.79175	760.86163	1363.69958	-810.36627	612.64795	1510.54285	-720.11023	592.43439	1312.74512	-703.05060	568.44067	1173.85388	-692.70459	526.18658	1048.39990	-734.79913	450.09991	938.24622	-692.68115	487.63110	931.81207	-691.90045	452.39911	875.33533	-1176.61108	629.29248	1501.46509	-1258.99023	675.42419	1314.26306	-1279.12878	671.00916	1167.43750	-1301.56702	641.24463	1050.69629	-1286.48621	587.99451	925.71875	-1314.82629	636.92957	920.97339	-1320.17395	598.11072	859.29034	-864.46204	524.78320	995.87659	-1120.64856	529.13605	987.65576	-944.04736	734.78583	1042.25122	-1059.20105	741.52173	1043.40039	-830.53754	591.30060	681.62952	-871.40955	628.19501	481.12439	-883.41498	687.27222	294.29092	-934.05853	684.34900	72.74814	-986.48517	719.36145	45.89826	-924.78699	528.59833	37.42350	-1217.29675	566.11365	691.12909	-1206.29846	522.89642	490.25513	-1199.69836	610.83844	325.98730	-1162.07666	668.88550	142.76582	-1096.97327	695.63995	91.02605	-1219.88916	549.90894	55.19621	-1022.79919	650.02893	1811.09900	-3360.25684	2845.14526	1034.18225						 
76	0.750	-935.50183	529.10864	1762.04272	-1078.02686	532.03815	1739.98608	-920.19092	648.06738	1670.86890	-1061.13745	662.48920	1645.10486	-986.06158	691.24438	1535.42493	-991.52472	748.49786	1262.06775	-982.77319	552.26312	1466.44763	-994.48608	503.17484	1292.86780	-1047.38000	754.29724	1363.80798	-809.85205	605.75201	1510.36853	-719.44696	584.75305	1312.79858	-701.98260	558.92230	1174.00610	-691.88037	515.05957	1049.28259	-734.96851	437.58310	940.40662	-692.58984	474.75415	933.29877	-692.01617	438.80704	877.46466	-1176.14111	622.53571	1500.95801	-1257.85156	669.50366	1313.86584	-1278.67810	665.65747	1167.36011	-1301.06702	636.14685	1050.42053	-1285.69995	583.16675	925.05530	-1314.17920	632.10974	920.63037	-1319.68359	593.34894	858.96954	-863.65405	519.83533	994.90967	-1120.08423	522.72131	987.30042	-944.51208	729.36279	1042.26221	-1059.61206	735.53857	1043.36902	-830.91748	587.91833	681.04260	-871.59473	626.06616	480.90964	-883.74292	686.08673	294.43668	-934.31421	684.23138	72.85744	-986.81860	719.23462	46.13679	-924.60413	528.44385	37.27939	-1217.03540	557.18243	691.64935	-1204.69910	511.94489	490.41916	-1199.38733	594.14722	322.95844	-1162.78748	645.71289	137.60713	-1098.11511	671.18719	84.90106	-1219.21240	522.75848	54.36037	-1023.05585	641.79584	1810.90881	-3357.34204	2845.82275	1034.29016						 
77	0.760	-936.05322	520.85059	1761.32922	-1078.44702	524.30206	1739.09521	-920.16669	640.29315	1670.82397	-1061.03760	655.16266	1644.91357	-985.69568	684.20850	1535.29883	-991.66541	742.18176	1262.18604	-982.29272	545.42847	1465.92163	-993.71277	496.83496	1292.37524	-1047.18298	747.84607	1363.94641	-809.43304	598.83557	1510.22119	-718.41907	576.65369	1312.99060	-700.65912	550.00763	1174.46667	-691.37848	504.11581	1050.16760	-734.63782	425.26837	942.70404	-692.47205	461.92410	934.77838	-692.13434	425.08600	879.61249	-1175.71716	615.74030	1500.50049	-1258.14648	663.55945	1313.88660	-1278.08167	660.14740	1167.02417	-1300.36841	630.97339	1049.99072	-1285.53589	577.94562	924.73444	-1313.36755	627.27576	920.14606	-1319.22974	588.55756	858.58154	-862.95819	514.65619	993.97296	-1119.68469	516.34149	986.91553	-944.91364	723.81653	1042.15417	-1059.92102	729.46735	1043.14502	-830.90790	585.12622	680.89221	-871.61133	624.05963	480.79532	-884.04236	684.89740	294.64413	-934.57617	684.05804	73.02828	-987.30243	719.35223	46.54251	-924.46259	528.24689	37.19086	-1216.95166	548.28369	692.04071	-1203.12622	501.37750	490.51102	-1198.81055	577.21826	319.86008	-1163.52295	622.38293	132.69765	-1099.12195	646.66583	79.23566	-1218.56165	495.82034	54.00252	-1023.94983	633.54071	1810.72437	-3360.12207	2844.95874	1034.22632						 
78	0.770	-936.42126	512.82257	1760.94202	-1078.99829	516.47638	1738.02527	-920.29364	632.49274	1670.91931	-1061.12634	648.04291	1644.74158	-985.43341	677.23151	1535.14575	-991.78961	735.87018	1262.20776	-981.89758	538.57007	1465.30188	-993.12744	490.46567	1291.64380	-1046.88586	741.17133	1363.86536	-809.15833	591.90466	1509.92310	-717.88855	569.35242	1313.09814	-699.61658	541.10413	1174.68213	-690.83203	493.45712	1051.07715	-734.86163	413.00360	945.00842	-692.74011	449.68393	936.32056	-692.53149	411.79358	881.73004	-1175.41980	608.80579	1499.89282	-1257.28137	657.40485	1313.39465	-1277.60718	654.54498	1166.70703	-1299.86865	625.66730	1049.52747	-1285.01331	573.04523	924.12506	-1312.77173	622.24408	919.68750	-1318.73413	583.63110	858.10931	-862.44702	509.48553	993.15826	-1119.35974	509.95773	986.43140	-945.29828	718.18573	1041.94324	-1060.16589	723.45190	1042.80469	-831.10217	581.89703	680.54541	-871.83801	621.74011	480.59653	-884.47559	683.74536	294.85391	-934.83075	683.92242	73.16238	-987.64984	719.21613	46.74043	-924.41736	527.79102	36.99255	-1216.67786	539.62970	692.22546	-1201.51343	491.04398	490.44986	-1198.63367	560.93164	317.08490	-1164.50232	599.08997	128.13077	-1100.31189	622.03772	73.78159	-1218.06494	468.97888	54.09349	-1024.13220	625.32288	1810.33862	-3357.33569	2845.74121	1034.46973						 
